<?xml version="1.0" standalone="no"?>
<!DOCTYPE svg PUBLIC "-//W3C//DTD SVG 20010904//EN"
 "http://www.w3.org/TR/2001/REC-SVG-20010904/DTD/svg10.dtd">
<svg version="1.0" xmlns="http://www.w3.org/2000/svg"
 width="512.000000pt" height="512.000000pt" viewBox="0 0 512.000000 512.000000"
 preserveAspectRatio="xMidYMid meet">
<metadata>
Created by potrace 1.14, written by Peter Selinger 2001-2017
</metadata>
<g transform="translate(0.000000,512.000000) scale(0.100000,-0.100000)"
fill="#000000" stroke="none">
<path d="M1569 5116 c-2 -2 -28 -7 -58 -10 -230 -27 -497 -141 -691 -294 -76
-61 -212 -204 -272 -288 -107 -150 -186 -322 -229 -500 -30 -125 -34 -166 -33
-344 1 -128 6 -188 23 -267 37 -177 102 -338 195 -483 23 -36 45 -70 49 -77 5
-8 -12 -23 -50 -43 -120 -63 -236 -166 -316 -279 -132 -186 -188 -370 -182
-595 4 -156 24 -249 86 -383 53 -116 103 -187 203 -286 117 -116 255 -196 411
-242 117 -34 171 -38 452 -39 155 -1 243 -5 243 -11 0 -5 14 -39 31 -75 62
-132 191 -213 336 -212 157 1 288 91 348 238 l24 59 78 0 c45 -1 77 -5 75 -10
-1 -6 -13 -41 -26 -80 -31 -89 -38 -132 -37 -224 3 -195 64 -338 205 -476 122
-119 250 -178 420 -191 348 -26 660 222 714 571 18 110 0 256 -43 358 -8 20
-15 40 -15 44 0 5 156 8 348 9 191 0 375 3 409 7 134 16 348 98 426 163 16 13
32 24 37 24 14 0 155 143 197 200 82 111 157 282 179 410 16 92 9 310 -14 397
-75 291 -255 514 -520 648 -56 28 -73 42 -79 63 -11 44 -60 150 -92 195 -91
130 -235 231 -391 272 -34 8 -114 18 -147 18 -40 -1 -44 2 -70 44 -162 261
-382 460 -641 579 l-60 27 -32 98 c-52 159 -136 317 -238 449 -65 83 -224 230
-315 291 -245 164 -483 239 -778 245 -86 2 -158 2 -160 0z"/>
</g>
</svg>
